<mxfile host="Electron" agent="Mozilla/5.0 (Macintosh; Intel Mac OS X 10_15_7) AppleWebKit/537.36 (KHTML, like Gecko) draw.io/28.0.4 Chrome/138.0.7204.97 Electron/37.2.1 Safari/537.36" version="28.0.4">
  <diagram name="第 1 页" id="pqVbbNAnkS0c9vyBjE1o">
    <mxGraphModel dx="1010" dy="604" grid="1" gridSize="10" guides="1" tooltips="1" connect="1" arrows="1" fold="1" page="1" pageScale="1" pageWidth="827" pageHeight="1169" math="0" shadow="0">
      <root>
        <mxCell id="0" />
        <mxCell id="1" parent="0" />
        <mxCell id="SxsPE1rcZtlj-bg1AcMY-23" value="gtm exporter" style="rounded=1;whiteSpace=wrap;html=1;fillColor=#fff2cc;strokeColor=#d6b656;" vertex="1" parent="1">
          <mxGeometry x="490" y="190" width="560" height="260" as="geometry" />
        </mxCell>
        <mxCell id="SxsPE1rcZtlj-bg1AcMY-3" value="" style="edgeStyle=orthogonalEdgeStyle;rounded=0;orthogonalLoop=1;jettySize=auto;html=1;" edge="1" parent="1" source="SxsPE1rcZtlj-bg1AcMY-1" target="SxsPE1rcZtlj-bg1AcMY-2">
          <mxGeometry relative="1" as="geometry" />
        </mxCell>
        <mxCell id="SxsPE1rcZtlj-bg1AcMY-1" value="client" style="rounded=0;whiteSpace=wrap;html=1;" vertex="1" parent="1">
          <mxGeometry x="120" y="220" width="120" height="60" as="geometry" />
        </mxCell>
        <mxCell id="SxsPE1rcZtlj-bg1AcMY-7" value="" style="edgeStyle=orthogonalEdgeStyle;rounded=0;orthogonalLoop=1;jettySize=auto;html=1;" edge="1" parent="1" source="SxsPE1rcZtlj-bg1AcMY-2" target="SxsPE1rcZtlj-bg1AcMY-6">
          <mxGeometry relative="1" as="geometry" />
        </mxCell>
        <mxCell id="SxsPE1rcZtlj-bg1AcMY-2" value="GTM pod" style="rounded=0;whiteSpace=wrap;html=1;fillColor=#ffe6cc;strokeColor=#d79b00;" vertex="1" parent="1">
          <mxGeometry x="320" y="220" width="120" height="60" as="geometry" />
        </mxCell>
        <mxCell id="SxsPE1rcZtlj-bg1AcMY-6" value="stdout log" style="rounded=0;whiteSpace=wrap;html=1;" vertex="1" parent="1">
          <mxGeometry x="320" y="340" width="120" height="60" as="geometry" />
        </mxCell>
        <mxCell id="SxsPE1rcZtlj-bg1AcMY-10" style="edgeStyle=orthogonalEdgeStyle;rounded=0;orthogonalLoop=1;jettySize=auto;html=1;entryX=1;entryY=0.5;entryDx=0;entryDy=0;" edge="1" parent="1" source="SxsPE1rcZtlj-bg1AcMY-9" target="SxsPE1rcZtlj-bg1AcMY-6">
          <mxGeometry relative="1" as="geometry" />
        </mxCell>
        <mxCell id="SxsPE1rcZtlj-bg1AcMY-11" value="read stdout log" style="edgeLabel;html=1;align=center;verticalAlign=middle;resizable=0;points=[];" vertex="1" connectable="0" parent="SxsPE1rcZtlj-bg1AcMY-10">
          <mxGeometry x="-0.0917" y="-3" relative="1" as="geometry">
            <mxPoint as="offset" />
          </mxGeometry>
        </mxCell>
        <mxCell id="SxsPE1rcZtlj-bg1AcMY-16" value="" style="edgeStyle=orthogonalEdgeStyle;rounded=0;orthogonalLoop=1;jettySize=auto;html=1;" edge="1" parent="1" source="SxsPE1rcZtlj-bg1AcMY-9" target="SxsPE1rcZtlj-bg1AcMY-13">
          <mxGeometry relative="1" as="geometry" />
        </mxCell>
        <mxCell id="SxsPE1rcZtlj-bg1AcMY-18" value="" style="edgeStyle=orthogonalEdgeStyle;rounded=0;orthogonalLoop=1;jettySize=auto;html=1;" edge="1" parent="1" source="SxsPE1rcZtlj-bg1AcMY-9" target="SxsPE1rcZtlj-bg1AcMY-17">
          <mxGeometry relative="1" as="geometry" />
        </mxCell>
        <mxCell id="SxsPE1rcZtlj-bg1AcMY-9" value="fluent-bit" style="rounded=1;whiteSpace=wrap;html=1;" vertex="1" parent="1">
          <mxGeometry x="540" y="340" width="120" height="60" as="geometry" />
        </mxCell>
        <mxCell id="SxsPE1rcZtlj-bg1AcMY-13" value="mpid redis" style="rounded=1;whiteSpace=wrap;html=1;" vertex="1" parent="1">
          <mxGeometry x="540" y="220" width="120" height="60" as="geometry" />
        </mxCell>
        <mxCell id="SxsPE1rcZtlj-bg1AcMY-20" value="" style="edgeStyle=orthogonalEdgeStyle;rounded=0;orthogonalLoop=1;jettySize=auto;html=1;" edge="1" parent="1" source="SxsPE1rcZtlj-bg1AcMY-17" target="SxsPE1rcZtlj-bg1AcMY-19">
          <mxGeometry relative="1" as="geometry" />
        </mxCell>
        <mxCell id="SxsPE1rcZtlj-bg1AcMY-17" value="influxdb" style="rounded=1;whiteSpace=wrap;html=1;" vertex="1" parent="1">
          <mxGeometry x="720" y="340" width="120" height="60" as="geometry" />
        </mxCell>
        <mxCell id="SxsPE1rcZtlj-bg1AcMY-22" value="" style="edgeStyle=orthogonalEdgeStyle;rounded=0;orthogonalLoop=1;jettySize=auto;html=1;" edge="1" parent="1" source="SxsPE1rcZtlj-bg1AcMY-19" target="SxsPE1rcZtlj-bg1AcMY-21">
          <mxGeometry relative="1" as="geometry" />
        </mxCell>
        <mxCell id="SxsPE1rcZtlj-bg1AcMY-19" value="data exporter" style="rounded=1;whiteSpace=wrap;html=1;" vertex="1" parent="1">
          <mxGeometry x="890" y="340" width="120" height="60" as="geometry" />
        </mxCell>
        <mxCell id="SxsPE1rcZtlj-bg1AcMY-25" value="" style="edgeStyle=orthogonalEdgeStyle;rounded=0;orthogonalLoop=1;jettySize=auto;html=1;" edge="1" parent="1" source="SxsPE1rcZtlj-bg1AcMY-21" target="SxsPE1rcZtlj-bg1AcMY-24">
          <mxGeometry relative="1" as="geometry" />
        </mxCell>
        <mxCell id="SxsPE1rcZtlj-bg1AcMY-21" value="prometheus" style="rounded=1;whiteSpace=wrap;html=1;" vertex="1" parent="1">
          <mxGeometry x="1070" y="340" width="120" height="60" as="geometry" />
        </mxCell>
        <mxCell id="SxsPE1rcZtlj-bg1AcMY-24" value="grafana" style="rounded=1;whiteSpace=wrap;html=1;" vertex="1" parent="1">
          <mxGeometry x="1260" y="340" width="120" height="60" as="geometry" />
        </mxCell>
      </root>
    </mxGraphModel>
  </diagram>
</mxfile>
